<mxfile host="app.diagrams.net" modified="2020-09-03T11:57:20.364Z" agent="5.0 (X11; Linux x86_64) AppleWebKit/537.36 (KHTML, like Gecko) Chrome/84.0.4147.105 Safari/537.36" etag="wTAZSK8VhjZuRJXzYVs7" version="13.6.5" type="github">
  <diagram id="C5RBs43oDa-KdzZeNtuy" name="Page-1">
    <mxGraphModel dx="1355" dy="806" grid="1" gridSize="10" guides="1" tooltips="1" connect="1" arrows="1" fold="1" page="1" pageScale="1" pageWidth="827" pageHeight="1169" math="0" shadow="0">
      <root>
        <mxCell id="WIyWlLk6GJQsqaUBKTNV-0" />
        <mxCell id="WIyWlLk6GJQsqaUBKTNV-1" parent="WIyWlLk6GJQsqaUBKTNV-0" />
        <mxCell id="gUsPMfEp7Qb1vzYHjpZl-29" value="" style="rounded=0;whiteSpace=wrap;html=1;dashed=1;" vertex="1" parent="WIyWlLk6GJQsqaUBKTNV-1">
          <mxGeometry x="310" y="520" width="400" height="140" as="geometry" />
        </mxCell>
        <mxCell id="gUsPMfEp7Qb1vzYHjpZl-20" value="" style="rounded=0;whiteSpace=wrap;html=1;dashed=1;" vertex="1" parent="WIyWlLk6GJQsqaUBKTNV-1">
          <mxGeometry x="310" y="420" width="410" height="60" as="geometry" />
        </mxCell>
        <mxCell id="gUsPMfEp7Qb1vzYHjpZl-18" value="" style="rounded=0;whiteSpace=wrap;html=1;dashed=1;" vertex="1" parent="WIyWlLk6GJQsqaUBKTNV-1">
          <mxGeometry x="314" y="60" width="406" height="330" as="geometry" />
        </mxCell>
        <mxCell id="gUsPMfEp7Qb1vzYHjpZl-4" style="edgeStyle=orthogonalEdgeStyle;rounded=0;orthogonalLoop=1;jettySize=auto;html=1;exitX=0.5;exitY=1;exitDx=0;exitDy=0;entryX=0.5;entryY=0;entryDx=0;entryDy=0;" edge="1" parent="WIyWlLk6GJQsqaUBKTNV-1" source="WIyWlLk6GJQsqaUBKTNV-7" target="WIyWlLk6GJQsqaUBKTNV-12">
          <mxGeometry relative="1" as="geometry" />
        </mxCell>
        <mxCell id="WIyWlLk6GJQsqaUBKTNV-7" value="&lt;font style=&quot;font-size: 14px&quot;&gt;rand7 -&amp;gt;&amp;nbsp; [1, 7]&lt;/font&gt;" style="rounded=1;whiteSpace=wrap;html=1;fontSize=12;glass=0;strokeWidth=1;shadow=0;" parent="WIyWlLk6GJQsqaUBKTNV-1" vertex="1">
          <mxGeometry x="354" y="70" width="120" height="40" as="geometry" />
        </mxCell>
        <mxCell id="gUsPMfEp7Qb1vzYHjpZl-6" style="edgeStyle=orthogonalEdgeStyle;rounded=0;orthogonalLoop=1;jettySize=auto;html=1;exitX=0.5;exitY=1;exitDx=0;exitDy=0;" edge="1" parent="WIyWlLk6GJQsqaUBKTNV-1" source="WIyWlLk6GJQsqaUBKTNV-12" target="gUsPMfEp7Qb1vzYHjpZl-5">
          <mxGeometry relative="1" as="geometry" />
        </mxCell>
        <mxCell id="WIyWlLk6GJQsqaUBKTNV-12" value="&lt;font style=&quot;font-size: 14px&quot;&gt;[0, 6]&lt;/font&gt;" style="rounded=1;whiteSpace=wrap;html=1;fontSize=12;glass=0;strokeWidth=1;shadow=0;" parent="WIyWlLk6GJQsqaUBKTNV-1" vertex="1">
          <mxGeometry x="354" y="160" width="120" height="40" as="geometry" />
        </mxCell>
        <mxCell id="gUsPMfEp7Qb1vzYHjpZl-11" style="edgeStyle=orthogonalEdgeStyle;rounded=0;orthogonalLoop=1;jettySize=auto;html=1;entryX=0.5;entryY=0;entryDx=0;entryDy=0;" edge="1" parent="WIyWlLk6GJQsqaUBKTNV-1" source="gUsPMfEp7Qb1vzYHjpZl-5" target="gUsPMfEp7Qb1vzYHjpZl-9">
          <mxGeometry relative="1" as="geometry" />
        </mxCell>
        <mxCell id="gUsPMfEp7Qb1vzYHjpZl-5" value="&lt;font style=&quot;font-size: 14px&quot;&gt;[0, 42]&lt;/font&gt;" style="rounded=1;whiteSpace=wrap;html=1;fontSize=12;glass=0;strokeWidth=1;shadow=0;" vertex="1" parent="WIyWlLk6GJQsqaUBKTNV-1">
          <mxGeometry x="354" y="250" width="120" height="40" as="geometry" />
        </mxCell>
        <mxCell id="gUsPMfEp7Qb1vzYHjpZl-7" value="*7" style="text;html=1;strokeColor=none;fillColor=none;align=center;verticalAlign=middle;whiteSpace=wrap;rounded=0;" vertex="1" parent="WIyWlLk6GJQsqaUBKTNV-1">
          <mxGeometry x="410" y="216" width="40" height="20" as="geometry" />
        </mxCell>
        <mxCell id="gUsPMfEp7Qb1vzYHjpZl-23" value="" style="edgeStyle=orthogonalEdgeStyle;rounded=0;orthogonalLoop=1;jettySize=auto;html=1;" edge="1" parent="WIyWlLk6GJQsqaUBKTNV-1" source="gUsPMfEp7Qb1vzYHjpZl-9" target="gUsPMfEp7Qb1vzYHjpZl-16">
          <mxGeometry relative="1" as="geometry" />
        </mxCell>
        <mxCell id="gUsPMfEp7Qb1vzYHjpZl-9" value="&lt;span style=&quot;font-size: 14px&quot;&gt;[1, 49]&lt;/span&gt;" style="rounded=1;whiteSpace=wrap;html=1;fontSize=12;glass=0;strokeWidth=1;shadow=0;" vertex="1" parent="WIyWlLk6GJQsqaUBKTNV-1">
          <mxGeometry x="354" y="340" width="120" height="40" as="geometry" />
        </mxCell>
        <mxCell id="gUsPMfEp7Qb1vzYHjpZl-10" value="&lt;font style=&quot;font-size: 14px&quot;&gt;区间间隙为7, [0, 7, 14, ..., 35, 42]&lt;/font&gt;" style="text;html=1;strokeColor=none;fillColor=none;align=center;verticalAlign=middle;whiteSpace=wrap;rounded=0;" vertex="1" parent="WIyWlLk6GJQsqaUBKTNV-1">
          <mxGeometry x="474" y="250" width="230" height="20" as="geometry" />
        </mxCell>
        <mxCell id="gUsPMfEp7Qb1vzYHjpZl-12" value="&lt;font style=&quot;font-size: 14px&quot;&gt;+rand7()&lt;/font&gt;" style="text;html=1;strokeColor=none;fillColor=none;align=center;verticalAlign=middle;whiteSpace=wrap;rounded=0;" vertex="1" parent="WIyWlLk6GJQsqaUBKTNV-1">
          <mxGeometry x="434" y="310" width="40" height="20" as="geometry" />
        </mxCell>
        <mxCell id="gUsPMfEp7Qb1vzYHjpZl-15" value="&lt;font style=&quot;font-size: 18px&quot;&gt;&lt;b&gt;1. 区间升级&lt;/b&gt;&lt;/font&gt;" style="text;html=1;strokeColor=none;fillColor=none;align=center;verticalAlign=middle;whiteSpace=wrap;rounded=0;dashed=1;" vertex="1" parent="WIyWlLk6GJQsqaUBKTNV-1">
          <mxGeometry x="160" y="150" width="100" height="20" as="geometry" />
        </mxCell>
        <mxCell id="gUsPMfEp7Qb1vzYHjpZl-26" value="" style="edgeStyle=orthogonalEdgeStyle;rounded=0;orthogonalLoop=1;jettySize=auto;html=1;" edge="1" parent="WIyWlLk6GJQsqaUBKTNV-1" source="gUsPMfEp7Qb1vzYHjpZl-16" target="gUsPMfEp7Qb1vzYHjpZl-25">
          <mxGeometry relative="1" as="geometry" />
        </mxCell>
        <mxCell id="gUsPMfEp7Qb1vzYHjpZl-16" value="&lt;span style=&quot;font-size: 14px&quot;&gt;[1, 40]&lt;/span&gt;" style="rounded=1;whiteSpace=wrap;html=1;fontSize=12;glass=0;strokeWidth=1;shadow=0;" vertex="1" parent="WIyWlLk6GJQsqaUBKTNV-1">
          <mxGeometry x="354" y="430" width="120" height="40" as="geometry" />
        </mxCell>
        <mxCell id="gUsPMfEp7Qb1vzYHjpZl-24" value="&lt;b&gt;&lt;font style=&quot;font-size: 18px&quot;&gt;2. 拒绝采样&lt;/font&gt;&lt;/b&gt;" style="text;html=1;strokeColor=none;fillColor=none;align=center;verticalAlign=middle;whiteSpace=wrap;rounded=0;dashed=1;" vertex="1" parent="WIyWlLk6GJQsqaUBKTNV-1">
          <mxGeometry x="160" y="440" width="100" height="20" as="geometry" />
        </mxCell>
        <mxCell id="gUsPMfEp7Qb1vzYHjpZl-30" value="" style="edgeStyle=orthogonalEdgeStyle;rounded=0;orthogonalLoop=1;jettySize=auto;html=1;" edge="1" parent="WIyWlLk6GJQsqaUBKTNV-1" source="gUsPMfEp7Qb1vzYHjpZl-25" target="gUsPMfEp7Qb1vzYHjpZl-27">
          <mxGeometry relative="1" as="geometry" />
        </mxCell>
        <mxCell id="gUsPMfEp7Qb1vzYHjpZl-25" value="&lt;span style=&quot;font-size: 14px&quot;&gt;[0, 39]&lt;/span&gt;" style="rounded=1;whiteSpace=wrap;html=1;fontSize=12;glass=0;strokeWidth=1;shadow=0;" vertex="1" parent="WIyWlLk6GJQsqaUBKTNV-1">
          <mxGeometry x="354" y="540" width="120" height="40" as="geometry" />
        </mxCell>
        <mxCell id="gUsPMfEp7Qb1vzYHjpZl-27" value="&lt;span style=&quot;font-size: 14px&quot;&gt;rand10 -&amp;gt; [1, 10]&lt;/span&gt;" style="rounded=1;whiteSpace=wrap;html=1;fontSize=12;glass=0;strokeWidth=1;shadow=0;" vertex="1" parent="WIyWlLk6GJQsqaUBKTNV-1">
          <mxGeometry x="354" y="610" width="120" height="40" as="geometry" />
        </mxCell>
        <mxCell id="gUsPMfEp7Qb1vzYHjpZl-31" value="&lt;span style=&quot;font-size: 14px&quot;&gt;&amp;lt;=40&lt;/span&gt;" style="text;html=1;strokeColor=none;fillColor=none;align=center;verticalAlign=middle;whiteSpace=wrap;rounded=0;" vertex="1" parent="WIyWlLk6GJQsqaUBKTNV-1">
          <mxGeometry x="434" y="400" width="40" height="20" as="geometry" />
        </mxCell>
        <mxCell id="gUsPMfEp7Qb1vzYHjpZl-32" value="&lt;span style=&quot;font-size: 14px&quot;&gt;-1&lt;/span&gt;" style="text;html=1;strokeColor=none;fillColor=none;align=center;verticalAlign=middle;whiteSpace=wrap;rounded=0;" vertex="1" parent="WIyWlLk6GJQsqaUBKTNV-1">
          <mxGeometry x="434" y="490" width="40" height="20" as="geometry" />
        </mxCell>
        <mxCell id="gUsPMfEp7Qb1vzYHjpZl-34" value="&lt;span style=&quot;font-size: 14px&quot;&gt;%10, +1&lt;/span&gt;" style="text;html=1;strokeColor=none;fillColor=none;align=center;verticalAlign=middle;whiteSpace=wrap;rounded=0;" vertex="1" parent="WIyWlLk6GJQsqaUBKTNV-1">
          <mxGeometry x="420" y="584.5" width="80" height="15" as="geometry" />
        </mxCell>
        <mxCell id="gUsPMfEp7Qb1vzYHjpZl-35" value="&lt;span style=&quot;font-size: 18px&quot;&gt;&lt;b&gt;3. 等概取余&lt;/b&gt;&lt;/span&gt;" style="text;html=1;strokeColor=none;fillColor=none;align=center;verticalAlign=middle;whiteSpace=wrap;rounded=0;dashed=1;" vertex="1" parent="WIyWlLk6GJQsqaUBKTNV-1">
          <mxGeometry x="160" y="590" width="100" height="20" as="geometry" />
        </mxCell>
      </root>
    </mxGraphModel>
  </diagram>
</mxfile>
